<?xml version="1.0" encoding="UTF-8"?><svg id="Web3" xmlns="http://www.w3.org/2000/svg" xmlns:xlink="http://www.w3.org/1999/xlink" viewBox="0 0 1080 1080"><defs><style>.cls-1{fill:none;}.cls-2{clip-path:url(#clippath);}.cls-3{fill:#fab17d;}.cls-4{fill:#f8fafd;}.cls-5{fill:#efa26f;}.cls-6{fill:#e2e8ef;}.cls-7{fill:#fef2f2;}.cls-8{fill:#f1f8f8;}.cls-9{fill:#f1f5f9;}.cls-10{fill:#fcc198;}.cls-11{fill:#fdd3b6;}.cls-12{fill:#fde2e2;}.cls-13{fill:#92bdc0;}.cls-14{fill:#ccd5e1;}.cls-15{fill:#cd2128;}.cls-16{fill:#085b6a;}.cls-17{fill:#151b2c;}.cls-18{fill:#94a3b7;}</style><clipPath id="clippath"><rect class="cls-1" x="90.92" y="129.89" width="898.16" height="820.23"/></clipPath></defs><g class="cls-2"><path class="cls-3" d="m637,478.55s-44.79,89.6-90.28,151.45c-18.1,24.62-36.32,44.83-51.86,53.26-15.22,8.25-28.1,21.07-38.76,35.28-27.61,36.78-40.35,82.83-40.35,82.83l-116.33-176s3.97-172.04,17.94-200.82c20.36-41.94,30.19-126.67,38.01-143.54,5.8-12.52,22.37-77.16,23.96-81.91.69-2.05,6.2-5.18,13.36-5.18,5.74,0,15.5,5.55,17.96,16.96,12.44,57.68-2.53,95.73-2.36,97.42,4.39,44.33-8.8,77.24.45,85.95.35.32.98.17,1.89-.41,16.04-10.3,115.58-155.41,127.84-158.55,12.95-3.3,98.54,243.25,98.54,243.25"/><path class="cls-15" d="m450.75,766.53s-1.58,78.21-6.12,183.55H151.19c67.08-143.04,125.39-263.43,125.39-263.43,0,0,167.08,5.1,174.17,79.88"/><path class="cls-3" d="m738.71,175.32l-36.03,52.81-35.35,51.83c-2.15,2.6-4.65,3.5-7.35,3.24-8.48-.8-18.98-13.04-27.16-19.81l-.83-.68c-10.79-8.92-12.31-25.05-3.39-35.83l54.03-65.32h0s16.03-19.38,16.03-19.38c8.92-10.79,25.05-12.31,35.83-3.39l.83.68c10.79,8.92,12.31,25.05,3.39,35.83"/><path class="cls-5" d="m702.68,228.14l-35.35,51.83c-2.15,2.6-4.65,3.51-7.35,3.24l22.66-121.64c.05.68,3.9,55.26,20.04,66.57"/><path class="cls-5" d="m546.72,630c-18.1,24.62-36.32,44.83-51.86,53.26-15.22,8.25-28.1,21.07-38.76,35.27-12.26-5.71-26.24-12.42-39.9-19.06-16.64-8.08-17.27-31.71-.98-40.46.16-.08.32-.17.47-.26,15.27-8.74,30.91-39.58,30.91-39.58l100.12,10.83Z"/><path class="cls-10" d="m378.51,201.78l-9.43,38.05s8.24,3.37,13.53.75c5.29-2.62,9.61-36.76-4.11-38.81"/><path class="cls-18" d="m649.59,647.98h-202.69c-19.94,0-36.25-16.31-36.25-36.25V166.21c0-19.94,16.31-36.25,36.25-36.25h202.69c19.94,0,36.25,16.31,36.25,36.25v445.52c0,19.94-16.31,36.25-36.25,36.25"/><path class="cls-9" d="m672.2,169.64v435.19c0,14.76-11.99,26.84-26.65,26.84h-194.62c-14.65,0-26.64-12.08-26.64-26.84V169.64c0-14.76,11.99-26.84,26.64-26.84h194.62c14.65,0,26.65,12.08,26.65,26.84"/><path class="cls-4" d="m645.55,142.8l-192.21,488.87h-2.41c-14.65,0-26.64-12.08-26.64-26.84V169.64c0-14.76,11.99-26.84,26.64-26.84h194.62Z"/><path class="cls-18" d="m588.91,158.99h-81.34c-6.63,0-12.05-5.42-12.05-12.05v-1.89c0-6.63,5.42-12.05,12.05-12.05h81.34c6.63,0,12.05,5.42,12.05,12.05v1.89c0,6.63-5.42,12.05-12.05,12.05"/><path class="cls-3" d="m720.78,374.76l-5.37,2.04-36.13,13.73c-.85.32-1.7.6-2.56.81-11.96,3.11-24.69-3.27-29.18-15.07l-.53-1.39c-4.81-12.65,1.61-26.93,14.26-31.74l33.68-12.8,2.45-.93,5.37-2.04c12.65-4.81,26.93,1.61,31.73,14.26l.53,1.39c4.81,12.65-1.61,26.93-14.26,31.74"/><path class="cls-11" d="m691.44,375.59c-6.03,2.28-16.95,6.34-22.78,7.18-1.65.24-4.7-.66-7.54-3.77-1.7-1.86-3.33-4.52-4.54-8.2-.57-1.73-1.04-3.45-1.23-5.23-.23-2.08-.17-4.16.2-6.22.33-1.86,1.6-3.55,3.45-4.44,0,0,.02,0,.03-.01,6.21-2.96,14.57-6.58,21.91-8.59,5.07-1.4,10.2.84,11.81,5.28l.76,2.07,3.88,10.62c1.6,4.41-1,9.46-5.93,11.31"/><path class="cls-10" d="m691.44,375.59c-6.03,2.28-16.95,6.34-22.78,7.18-1.65.24-4.7-.66-7.54-3.77-.3-.71-.58-1.45-.84-2.25-.57-1.73-1.04-3.45-1.23-5.23-.22-2.08-.16-4.16.2-6.22.33-1.86,1.6-3.55,3.45-4.44,0,0,.02,0,.03-.01,6.21-2.96,14.57-6.58,21.91-8.59,3.25-.9,6.52-.3,8.87,1.41l3.88,10.62c1.6,4.41-1,9.46-5.93,11.31"/><path class="cls-3" d="m704.38,425.55l-27.86,7.58c-8.46,2.3-17.28-2.73-19.58-11.2l-.86-3.15c-2.3-8.46,2.74-17.28,11.2-19.58l27.86-7.58c8.47-2.31,17.28,2.74,19.58,11.2l.86,3.15c2.3,8.47-2.73,17.28-11.2,19.58"/><path class="cls-11" d="m689.32,424.19c-5.12,1.37-14.37,3.78-19.22,4.04-1.76.1-5.3-1.39-7.6-6.03-.57-1.12-1.05-2.42-1.43-3.93-.34-1.37-.59-2.72-.62-4.09-.03-1.62.17-3.21.62-4.77.4-1.41,1.57-2.62,3.15-3.18.01,0,.02,0,.03-.01,5.31-1.88,12.44-4.11,18.61-5.19,4.26-.75,8.3,1.3,9.3,4.81l.72,2.51,2.15,7.53c.99,3.49-1.53,7.2-5.71,8.31"/><path class="cls-10" d="m689.32,424.19c-5.12,1.37-14.37,3.78-19.22,4.04-1.76.1-5.3-1.39-7.6-6.03-.31-1.27-.53-2.55-.56-3.84-.03-1.61.17-3.21.62-4.77.4-1.4,1.57-2.62,3.15-3.18.01,0,.02,0,.03-.01,5.31-1.88,12.44-4.11,18.61-5.18,3.53-.62,6.91.68,8.53,3.14l2.15,7.53c.99,3.49-1.53,7.2-5.71,8.31"/><path class="cls-12" d="m248.01,746s57.34,54.92,96,76.13l29.27-20.76v30.62s57.56,10.18,75.72,0v-83.51l-161.67-81.05-39.31,78.57Z"/><path class="cls-6" d="m461.2,825.34c-22.27,4.57-70.27-12.93-70.27-12.93l7.74-74.78-54.24,62.12c-27.6-10.27-70.78-37.08-96.43-53.76-12.77-8.31-21.2-14.1-21.2-14.1,36.19-58.25,72.61-112.72,72.61-112.72,10.69,21.38,35.98,39.94,63.4,54.79,45.57,24.68,97,39.1,97,39.1-.02,44.44,1.39,112.28,1.39,112.28"/><path class="cls-3" d="m719.9,321.37c-.2.07-.4.14-.6.2l-36.52,9.38c-16.06,4.13-32.67-4.56-36.91-19.31l-2.17-7.55c-4.07-14.16,4.68-28.96,19.61-33.76l12.06-3.1,24.46-6.28c16.06-4.13,32.67,4.56,36.91,19.31l2.17,7.55c4.01,13.97-4.45,28.55-19,33.56"/><path class="cls-11" d="m703.16,311.18l-17.74,8s-.06.01-.11.03c-.71.19-1.43.34-2.15.44-.3.05-.6.08-.9.11-.12.01-.25.01-.38,0-1.96-.07-3.29-2.14-2.45-3.99,1.68-3.65,2.13-7.88,1-12.03l-.42-1.55s0-.03-.01-.05l-1.37-5.04c-1.09-4.02-3.41-7.38-6.43-9.81-.36-.3-.74-.58-1.12-.84-3.51-2.43-2.61-7.93,1.49-9.07.04-.01.07-.02.11-.03l19.47-2.95c4.81-1.31,9.45,2.4,10.76,7.21l1.57,5.74,3.33,12.24c1.31,4.82.17,10.27-4.65,11.58"/><path class="cls-10" d="m703.16,311.18l-17.74,8s-.06.01-.11.03c-.42.08-1.72.3-3.42.56-1.96-.07-3.29-2.14-2.45-3.99,1.68-3.65,2.13-7.88,1-12.03l-.42-1.55s0-.03-.01-.05l-1.37-5.04c-1.09-4.02-3.41-7.38-6.43-9.81.63-.92,1.57-1.65,2.79-1.99.03-.01.07-.02.11-.03l19.47-2.94c4.05-1.1,7.98,1.35,9.91,5.02l3.33,12.24c1.31,4.82.17,10.27-4.65,11.58"/><path class="cls-5" d="m410.65,511.35s-7.97-69.56-15.32-83.12c-7.35-13.57-13.57-40.73-2.26-60.91,11.31-20.19,15.22-59.02,15.22-59.02,4.39,44.33-8.8,77.24.45,85.95.35.32.98.17,1.89-.41l.03,117.5Z"/><path class="cls-16" d="m311.9,398.06h276.72c9.61,0,17.39-7.79,17.39-17.39v-110.83c0-9.61-7.79-17.39-17.39-17.39h-276.72c-9.61,0-17.39,7.79-17.39,17.39v110.83c0,9.61,7.79,17.39,17.39,17.39"/><path class="cls-13" d="m590.55,234.01h-108.31c-8.04,0-14.55-6.51-14.55-14.55v-20.54c0-8.03,6.51-14.55,14.55-14.55h108.31c8.04,0,14.55,6.51,14.55,14.55v20.54c0,8.04-6.51,14.55-14.55,14.55"/><path class="cls-13" d="m585.81,597.97h-124.87c-9.62,0-17.42-7.8-17.42-17.42v-26.4c0-9.62,7.8-17.42,17.42-17.42h124.87c9.62,0,17.42,7.8,17.42,17.42v26.4c0,9.62-7.8,17.42-17.42,17.42"/><path class="cls-15" d="m634.34,511.35h-117.97c-11.53,0-20.87-9.35-20.87-20.87v-46.16c0-11.53,9.35-20.87,20.87-20.87h117.97c11.53,0,20.87,9.35,20.87,20.87v46.16c0,11.53-9.35,20.87-20.87,20.87"/><path class="cls-3" d="m967.85,950.11h-215.21c-10.32-6.92-63.91-43.47-86.09-70.73-4.7-5.78-21.89-55.55-35.1-95.96-8.25-25.24-14.95-46.84-16.08-51.8-.39-1.73-.65-5.15-.81-9.78v-.05c-.56-16.53.21-48.4,1-73.71v-.12s.02-.33.02-.33c.04-1.11.07-2.21.11-3.29v-.04c0-.11,0-.22.01-.33.14-4.4.28-8.54.42-12.31.33-9.42.61-16.51.73-19.28l.05-1.29s0,0,.01,0c.34-.19,10.69-5.72,24.53,4.25,3.34,2.41,6.43,8.23,9.24,15.82,1.8,4.85,3.49,10.41,5.06,16.28,6.04,22.56,10.38,49.53,12.7,56.75,3.73,11.67,47.73,62.99,50.48,66.18.04.06.09.11.13.16v-81.05l-33.22-88.88-13.64-36.49-6.85-18.34s-10.51-17.26-19.33-38.02c-3.86-9.08-7.4-18.84-9.58-28.11-.52-2.21-.97-4.39-1.32-6.53h0c-1.3-7.85-1.39-15.11.42-21.03,3.21-10.54,10.45-12.52,16.02-12.31.58.02,1.13.07,1.67.13.54.07,1.08.17,1.6.31.98.26,1.9.65,2.77,1.15,0,0,0,0,.01,0,1.43.83,2.66,1.98,3.61,3.38,0,0,4.7,6.13,11,14.38,4.15,5.43,8.99,11.77,13.64,17.87,8.28,10.89,15.97,21.04,18.09,24.02,11.43,16.09,42.2,68.51,42.2,68.51l36.02,1.51c5.71.24,11.14,2.51,15.31,6.41,12.81,11.96,40.42,37.84,43.81,41.69,0,1.26,21.46,11.58,38.03,20.77,11.86,5.01,34.38,22.77,34.38,22.77,4.67,4.12,8.22,8.22,10.02,12.14,7.72,16.81,28.67,162.98,38.68,235.24,3.22,23.23,5.31,38.82,5.48,40.02"/><path class="cls-5" d="m746.12,569.55s33.37,54.47,37.78,56.92c4.42,2.45,21.59,5.89,23.55,0,1.96-5.89-61.34-56.92-61.34-56.92"/><path class="cls-5" d="m913.83,662.85c-.06-.05-.11-.1-.17-.15,0,0-22.52-17.76-34.38-22.77-15.22-8.44-34.55-17.82-37.62-20.28,3.53,4.04,28.38,32.16,37.95,34.27,8.4,1.85,27.47,7.07,34.22,8.93"/><path class="cls-5" d="m719.05,770.55v-81.05s19.26,32.21,20.73,49.87c1.47,17.66-8,46.26-20.73,31.18"/><path class="cls-11" d="m649.19,473.12c-2.82-4.83-7.86-13.58-9.59-18.48-.49-1.38-.43-4.15,1.27-7.11,1.02-1.77,2.62-3.61,5.05-5.24,1.14-.77,2.3-1.45,3.55-1.91,1.46-.53,2.98-.82,4.54-.84,1.41-.02,2.87.8,3.88,2.25,0,0,0,.02.01.02,3.34,4.87,7.57,11.5,10.45,17.5,1.99,4.14,1.36,8.93-1.54,11.03l-1.35.99-6.93,5.06c-2.88,2.1-7.04.67-9.33-3.28"/><path class="cls-10" d="m649.19,473.12c-2.82-4.83-7.86-13.58-9.59-18.48-.49-1.38-.43-4.15,1.27-7.11.45-.38.94-.74,1.47-1.09,1.14-.77,2.3-1.45,3.54-1.91,1.46-.53,2.98-.82,4.54-.84,1.41-.02,2.87.8,3.88,2.25,0,0,0,.02.02.02,3.34,4.87,7.57,11.5,10.44,17.5,1.28,2.66,1.48,5.57.7,7.87l-6.93,5.06c-2.88,2.1-7.04.67-9.33-3.28"/><path class="cls-15" d="m837.12,265.37h-45.11c-11.87,0-21.58-9.71-21.58-21.58v-37.16c0-11.87,9.71-21.58,21.58-21.58h45.11c11.87,0,21.58,9.71,21.58,21.58v37.16c0,11.87-9.71,21.58-21.58,21.58"/><path class="cls-7" d="m791.11,224.55c2.45,6.46,23.47,23.43,23.47,23.43,0,0,6.85-5.57,13.2-11.56,4.75-4.44,9.19-9.11,10.24-11.87,2.49-6.42-.16-15.61-9.34-17.16-9.15-1.56-14.09,8.02-14.09,8.02,0,0-4.94-9.58-14.13-8.02-1.6.27-3,.78-4.2,1.48-5.72,3.19-7.16,10.39-5.14,15.68"/><path class="cls-13" d="m111.66,474.54h135.15c10.77,0,19.59,8.81,19.59,19.59v59.29c0,9.9-8.1,17.99-17.99,17.99h-3.47l6.51,27.5-40.88-27.5h-100.07c-10.76,0-19.57-8.81-19.57-19.57v-56.56c0-11.4,9.33-20.74,20.74-20.74"/><path class="cls-8" d="m108.03,517.58h140.92c1.92,0,3.49-1.57,3.49-3.49s-1.57-3.49-3.49-3.49H108.03c-1.92,0-3.49,1.57-3.49,3.49s1.57,3.49,3.49,3.49"/><path class="cls-8" d="m108.03,533.2h140.92c1.92,0,3.49-1.57,3.49-3.49s-1.57-3.49-3.49-3.49H108.03c-1.92,0-3.49,1.57-3.49,3.49s1.57,3.49,3.49,3.49"/><path class="cls-8" d="m108.03,548.82h140.92c1.92,0,3.49-1.57,3.49-3.49s-1.57-3.49-3.49-3.49H108.03c-1.92,0-3.49,1.57-3.49,3.49s1.57,3.49,3.49,3.49"/><path class="cls-8" d="m184.8,493.32h59.82c2.28,0,4.15-1.87,4.15-4.15s-1.87-4.15-4.15-4.15h-59.82c-2.29,0-4.15,1.87-4.15,4.15s1.87,4.15,4.15,4.15"/><path class="cls-8" d="m133.39,493.32h36c1.81,0,3.28-1.48,3.28-3.28v-1.74c0-1.81-1.48-3.28-3.28-3.28h-36c-1.81,0-3.28,1.48-3.28,3.28v1.74c0,1.81,1.48,3.28,3.28,3.28"/><polygon class="cls-14" points="790.72 504.61 875.73 532.41 824.81 482.78 819.64 494.9 797.76 495.01 790.72 504.61"/><polygon class="cls-4" points="875.73 532.41 809.75 482.22 739.27 466.12 875.73 532.41"/><polygon class="cls-4" points="824.81 482.78 875.73 532.41 841.79 462.88 824.81 482.78"/><polygon class="cls-14" points="289.48 187.95 210.03 199.28 262.75 163.34 265.44 174.86 284.76 178.36 289.48 187.95"/><polygon class="cls-9" points="210.03 199.28 276.15 165.19 340.95 161.93 210.03 199.28"/><polygon class="cls-9" points="262.75 163.34 210.03 199.28 250.85 143.11 262.75 163.34"/><path class="cls-8" d="m414.22,319.76c0,10.36-3.49,19.91-9.37,27.53-1.95,2.53-4.16,4.85-6.59,6.91-7.87,6.67-18.05,10.7-29.17,10.7-10.11,0-19.43-3.32-26.96-8.94-3.32-2.47-6.28-5.39-8.81-8.67-5.88-7.62-9.37-17.17-9.37-27.53,0-24.93,20.2-45.14,45.14-45.14s45.14,20.21,45.14,45.14"/><path class="cls-17" d="m387.22,341.1c-.12-.14-.24-.26-.35-.38-.52-.4-1.04-.64-3.12-1.01-1.06-.18-2.53-.39-4.63-.66,0,0-.45-.05-.69-.07-.16-.01-.33-.03-.52-.05-.6-.31-.75-2.8-.75-5.42,0-.2,0-.39,0-.59,0-.99.04-1.97.08-2.85,0-.06,0-.11,0-.16,1.29.11,2.15.1,2.15.1,2.4-.19,3.91-6.64,4.44-11.85,0,0,1.19-2.86,1.19-5.95,0-1.74-.37-3.55-1.54-4.97-.61-.73-1.17-1.21-1.69-1.51-.15-.15-.3-.29-.45-.42-2.24-2.48-11.33-11.79-17.3-6.41-.15-.54-2.1-6.58-11.51-4.6.58-.06,4.76-.45,5.96,1.24-.16-.07-3.81-1.69-6.1-.28-1.06.64-1.72,1.99-2.1,3.4,0,.01,0,.02-.01.03,0,.01,0,.02,0,.02h0s0,.03,0,.05c-.04.19-.09.38-.13.58,0,.03-.01.06-.02.09,0,0,0,.01,0,.02h0c-.28,1.47-.28,2.89-.11,3.57.35,1.47,2.95,5.86,4.67,5.86.65,0,1.35-.22,1.96-.48-.27.78-.51,1.63-.7,2.55-1.83,8.6,3.89,15.14,6.85,13.52,1.9-1.03,3.34,2.29,3.34,2.29h0c-.28,6.28-2.01,10.38-3.29,11.41-.46.05-1.45.17-2.69.37h0s-4.36.47-7.69,1.92c-.03.01-.05.02-.08.03-.76.31-1.4.66-1.89,1.05,0,0,0,.01-.01.01h0c-.25.2-.46.41-.61.64-.08.09-.14.19-.2.28-1.11,2.11-2.23,5.29-3.3,9.01,6.38,4.76,14.29,7.58,22.86,7.58,9.43,0,18.07-3.41,24.74-9.07-2.45-5.11-5.25-7.74-6.77-8.9"/><path class="cls-8" d="m496.4,297.03h-51.27c-1.78,0-3.23-1.45-3.23-3.23v-1.54c0-1.78,1.45-3.23,3.23-3.23h51.27c1.78,0,3.23,1.45,3.23,3.23v1.54c0,1.78-1.45,3.23-3.23,3.23"/><path class="cls-8" d="m497.03,325.8h-52.52c-1.43,0-2.61-1.17-2.61-2.61s1.18-2.61,2.61-2.61h52.52c1.43,0,2.61,1.17,2.61,2.61s-1.17,2.61-2.61,2.61"/><path class="cls-8" d="m473.78,338.16h-29.88c-1.1,0-2-.9-2-2v-1.22c0-1.1.9-2,2-2h29.88c1.1,0,2,.9,2,2v1.22c0,1.1-.9,2-2,2"/><path class="cls-8" d="m534.67,338.16h-48.28c-1.38,0-2.51-1.13-2.51-2.51v-.2c0-1.38,1.13-2.51,2.51-2.51h48.28c1.38,0,2.51,1.13,2.51,2.51v.2c0,1.38-1.13,2.51-2.51,2.51"/><path class="cls-8" d="m579.78,325.8h-68.86c-1.43,0-2.61-1.17-2.61-2.61s1.18-2.61,2.61-2.61h68.86c1.43,0,2.61,1.17,2.61,2.61s-1.17,2.61-2.61,2.61"/><path class="cls-8" d="m497.03,350.51h-52.52c-1.43,0-2.61-1.17-2.61-2.61s1.18-2.61,2.61-2.61h52.52c1.43,0,2.61,1.17,2.61,2.61s-1.17,2.61-2.61,2.61"/><path class="cls-8" d="m579.78,350.51h-68.86c-1.43,0-2.61-1.17-2.61-2.61s1.18-2.61,2.61-2.61h68.86c1.43,0,2.61,1.17,2.61,2.61s-1.17,2.61-2.61,2.61"/><path class="cls-8" d="m546.38,297.03h-36.83c-1.52,0-2.77-1.25-2.77-2.77v-2.47c0-1.52,1.25-2.77,2.77-2.77h36.83c1.52,0,2.77,1.25,2.77,2.77v2.47c0,1.52-1.24,2.77-2.77,2.77"/><path class="cls-16" d="m499.95,554.13h-36.45c-1.26,0-2.3-1.03-2.3-2.3v-1.1c0-1.26,1.03-2.3,2.3-2.3h36.45c1.26,0,2.3,1.03,2.3,2.3v1.1c0,1.26-1.03,2.3-2.3,2.3"/><path class="cls-16" d="m500.39,568.7h-37.34c-1.02,0-1.86-.83-1.86-1.86s.83-1.86,1.86-1.86h37.34c1.02,0,1.86.83,1.86,1.86s-.83,1.86-1.86,1.86"/><path class="cls-16" d="m483.86,577.48h-21.24c-.78,0-1.42-.64-1.42-1.42v-.87c0-.78.64-1.42,1.42-1.42h21.24c.78,0,1.42.64,1.42,1.42v.87c0,.78-.64,1.42-1.42,1.42"/><path class="cls-16" d="m527.16,577.48h-34.33c-.98,0-1.78-.8-1.78-1.78v-.15c0-.98.8-1.78,1.78-1.78h34.33c.98,0,1.78.8,1.78,1.78v.15c0,.98-.8,1.78-1.78,1.78"/><path class="cls-16" d="m559.23,568.7h-48.96c-1.02,0-1.86-.83-1.86-1.86s.83-1.86,1.86-1.86h48.96c1.02,0,1.86.83,1.86,1.86s-.83,1.86-1.86,1.86"/><path class="cls-16" d="m500.39,586.27h-37.34c-1.02,0-1.86-.83-1.86-1.86s.83-1.86,1.86-1.86h37.34c1.02,0,1.86.83,1.86,1.86s-.83,1.86-1.86,1.86"/><path class="cls-16" d="m559.23,586.27h-48.96c-1.02,0-1.86-.83-1.86-1.86s.83-1.86,1.86-1.86h48.96c1.02,0,1.86.83,1.86,1.86s-.83,1.86-1.86,1.86"/><path class="cls-16" d="m535.48,554.13h-26.18c-1.08,0-1.97-.89-1.97-1.97v-1.76c0-1.08.88-1.97,1.97-1.97h26.18c1.08,0,1.97.89,1.97,1.97v1.76c0,1.08-.89,1.97-1.97,1.97"/><path class="cls-16" d="m524.13,199.64h-36.45c-1.26,0-2.3-1.03-2.3-2.3v-1.1c0-1.26,1.03-2.3,2.3-2.3h36.45c1.26,0,2.3,1.03,2.3,2.3v1.1c0,1.26-1.03,2.3-2.3,2.3"/><path class="cls-16" d="m524.58,214.21h-37.34c-1.02,0-1.86-.84-1.86-1.85s.83-1.86,1.86-1.86h37.34c1.02,0,1.86.84,1.86,1.86s-.83,1.85-1.86,1.85"/><path class="cls-16" d="m508.05,222.99h-21.24c-.78,0-1.42-.64-1.42-1.42v-.87c0-.78.64-1.42,1.42-1.42h21.24c.78,0,1.42.64,1.42,1.42v.87c0,.78-.64,1.42-1.42,1.42"/><path class="cls-16" d="m551.34,222.99h-34.33c-.98,0-1.78-.8-1.78-1.78v-.14c0-.98.8-1.78,1.78-1.78h34.33c.98,0,1.78.8,1.78,1.78v.14c0,.98-.8,1.78-1.78,1.78"/><path class="cls-16" d="m583.41,214.21h-48.96c-1.02,0-1.86-.84-1.86-1.85s.83-1.86,1.86-1.86h48.96c1.02,0,1.86.84,1.86,1.86s-.83,1.85-1.86,1.85"/><path class="cls-16" d="m559.67,199.64h-26.18c-1.08,0-1.97-.89-1.97-1.97v-1.76c0-1.08.89-1.97,1.97-1.97h26.18c1.08,0,1.97.89,1.97,1.97v1.76c0,1.08-.89,1.97-1.97,1.97"/><path class="cls-12" d="m556.35,445.79h-39.91c-1.38,0-2.52-1.13-2.52-2.52v-1.2c0-1.38,1.13-2.52,2.52-2.52h39.91c1.38,0,2.52,1.13,2.52,2.52v1.2c0,1.38-1.13,2.52-2.52,2.52"/><path class="cls-12" d="m556.84,461.74h-40.88c-1.12,0-2.03-.91-2.03-2.03s.91-2.03,2.03-2.03h40.88c1.12,0,2.03.91,2.03,2.03s-.91,2.03-2.03,2.03"/><path class="cls-12" d="m538.74,471.36h-23.26c-.86,0-1.56-.7-1.56-1.56v-.95c0-.86.7-1.56,1.56-1.56h23.26c.86,0,1.56.7,1.56,1.56v.95c0,.86-.7,1.56-1.56,1.56"/><path class="cls-12" d="m586.14,471.36h-37.58c-1.07,0-1.95-.88-1.95-1.95v-.16c0-1.07.88-1.95,1.95-1.95h37.58c1.07,0,1.95.88,1.95,1.95v.16c0,1.07-.88,1.95-1.95,1.95"/><path class="cls-12" d="m621.25,461.74h-53.6c-1.12,0-2.03-.91-2.03-2.03s.91-2.03,2.03-2.03h53.6c1.12,0,2.03.91,2.03,2.03s-.91,2.03-2.03,2.03"/><path class="cls-12" d="m556.84,480.97h-40.88c-1.12,0-2.03-.91-2.03-2.03s.91-2.03,2.03-2.03h40.88c1.12,0,2.03.91,2.03,2.03s-.91,2.03-2.03,2.03"/><path class="cls-12" d="m621.25,480.97h-53.6c-1.12,0-2.03-.91-2.03-2.03s.91-2.03,2.03-2.03h53.6c1.12,0,2.03.91,2.03,2.03s-.91,2.03-2.03,2.03"/><path class="cls-12" d="m556.84,490.98h-40.88c-1.12,0-2.03-.91-2.03-2.03s.91-2.03,2.03-2.03h40.88c1.12,0,2.03.91,2.03,2.03s-.91,2.03-2.03,2.03"/><path class="cls-12" d="m621.25,490.98h-53.6c-1.12,0-2.03-.91-2.03-2.03s.91-2.03,2.03-2.03h53.6c1.12,0,2.03.91,2.03,2.03s-.91,2.03-2.03,2.03"/><path class="cls-12" d="m595.25,445.79h-28.66c-1.19,0-2.15-.97-2.15-2.15v-1.92c0-1.18.97-2.15,2.15-2.15h28.66c1.18,0,2.15.97,2.15,2.15v1.92c0,1.18-.97,2.15-2.15,2.15"/><path class="cls-18" d="m461.82,170.02l-2.77,1.99-2.79-1.97c.62-.87,1.64-1.44,2.79-1.44s2.15.56,2.77,1.42"/><path class="cls-18" d="m459.05,163.75c-2.79,0-5.25,1.39-6.74,3.51l1.76,1.23c1.11-1.57,2.93-2.59,4.99-2.59s3.85,1.01,4.96,2.55l1.76-1.26c-1.5-2.09-3.95-3.45-6.71-3.45"/><path class="cls-18" d="m459.05,154.53c-5.9,0-11.11,2.93-14.28,7.42l1.76,1.23c2.77-3.92,7.35-6.5,12.51-6.5s9.67,2.53,12.45,6.4l1.74-1.26c-3.17-4.42-8.35-7.3-14.2-7.3"/><path class="cls-18" d="m459.05,159.58c-4.2,0-7.92,2.08-10.18,5.26l1.76,1.23c1.88-2.62,4.95-4.34,8.42-4.34s6.5,1.69,8.38,4.27l1.74-1.25c-2.27-3.14-5.96-5.18-10.12-5.18"/><path class="cls-6" d="m443.47,463.81c0,4.07,1.37,7.82,3.68,10.81.77,1,1.64,1.9,2.59,2.71.95.81,1.98,1.51,3.09,2.11,2.49,1.34,5.34,2.1,8.37,2.1,3.78,0,7.29-1.19,10.16-3.2.15-.1.29-.2.43-.31,1.3-.97,2.47-2.11,3.46-3.41,2.31-2.99,3.68-6.74,3.68-10.81,0-9.79-7.94-17.73-17.73-17.73s-17.73,7.94-17.73,17.73"/><path class="cls-16" d="m466,475.18l-1.63-1.45c-.14.03-.27.05-.41.07-.3-.2-.62-.41-.95-.59.11-.66.2-1.27.27-1.82.25-1.9.28-3.05.28-3.22.87-.04,1.45-.14,1.45-.14,1.64-.38,1.72-5.97,1.34-8.88.31,0,.61-.04.91-.17,1.24-.55,1.31-2.42,1.31-2.42,0,0-.36.67-.89.88,0,0,2.07-2.84-.33-4.78-2.39-1.95-4.84-.67-6.24-.59-3.06.19-5.04.37-6.03,2.38-.99,1.98-.6,7.44,1.29,9.44.03.19.06.37.09.56.11.72.37,1.31.75,1.78-.43,2.35-1.39,4.1-2.26,5.27-.59.46-1.13,1.05-1.63,1.75-.01,0-.03.02-.03.02,0,0,0,0,.01,0-.92,1.31-1.68,3.02-2.29,5.02,0,.01,0,.02,0,.03,1,.71,2.09,1.3,3.23,1.78.07.03.15.06.22.09.02,0,.03.01.05.02.12.05.25.1.37.14.3.12.6.23.9.32.32.1.64.2.96.28.15.04.3.08.45.11.13.03.26.06.4.08.02,0,.04,0,.06.01.09.02.18.03.27.05.21.04.42.07.63.11.05,0,.1.01.15.02.12.02.23.03.35.05.16.02.33.04.49.06.18.02.37.03.56.04.17.01.35.02.53.03.18,0,.37.01.56.01.2,0,.4,0,.6-.01.02,0,.03,0,.05,0,.05,0,.1,0,.15,0,.1,0,.2,0,.29-.01.01,0,.02,0,.04,0,.19,0,.37-.02.56-.04,2.4-.22,4.65-.94,6.68-2.02-1.03-1.76-2.31-3.14-3.52-4.26"/><path class="cls-12" d="m617.53,566.85c0,4.1,1.38,7.87,3.71,10.89.77,1,1.64,1.92,2.61,2.73,3.11,2.64,7.14,4.23,11.54,4.23,4,0,7.68-1.31,10.66-3.53,1.31-.98,2.48-2.13,3.48-3.43,2.32-3.01,3.7-6.79,3.7-10.89,0-9.86-7.99-17.85-17.85-17.85s-17.85,7.99-17.85,17.85"/><path class="cls-15" d="m644.49,576.96s-.05-.09-.09-.14c-.07-.1-.17-.2-.29-.29h0c-.22-.19-.53-.35-.88-.5-.01,0-.02-.01-.04-.02-1.55-.68-3.58-.9-3.58-.9-.58-.09-1.04-.14-1.25-.17-.6-.48-1.4-2.4-1.53-5.33h0s.67-1.54,1.55-1.06c1.38.75,4.05-2.3,3.2-6.31-.09-.43-.21-.83-.33-1.19.29.12.61.22.92.22.8,0,2.01-2.05,2.18-2.74.17-.69-.02-2.95-1.11-3.62-1.07-.66-2.77.1-2.84.13.55-.77,2.42-.61,2.76-.58-4.37-.91-5.27,1.9-5.35,2.15-2.78-2.51-7.02,1.83-8.06,2.99-.07.06-.14.13-.21.2-.24.14-.51.36-.79.7-.55.66-.72,1.51-.72,2.32,0,1.44.55,2.77.55,2.77.25,2.43.95,5.44,2.08,5.52,0,0,.4,0,1-.05,0,.03,0,.05,0,.08.02.41.03.87.04,1.32v.27c0,1.22-.07,2.38-.35,2.53-.09,0-.17.01-.24.02-.11,0-.32.03-.32.03-.97.13-1.67.22-2.16.31-.97.16-1.22.28-1.46.47-.06.05-.11.11-.17.18-.71.54-2.02,1.76-3.16,4.14,3.11,2.64,7.14,4.23,11.53,4.23,4,0,7.69-1.31,10.66-3.53-.5-1.74-1.02-3.22-1.54-4.2"/><path class="cls-12" d="m617.53,208.12c0,4.1,1.38,7.87,3.71,10.89.77,1,1.64,1.92,2.61,2.73,3.11,2.64,7.14,4.23,11.54,4.23,4,0,7.68-1.31,10.66-3.53,1.31-.98,2.48-2.13,3.48-3.43,2.32-3.01,3.7-6.79,3.7-10.89,0-9.86-7.99-17.85-17.85-17.85s-17.85,7.99-17.85,17.85"/><path class="cls-15" d="m644.49,218.24s-.05-.09-.09-.14c-.07-.1-.17-.2-.29-.29h0c-.22-.18-.53-.35-.88-.5-.01,0-.02,0-.04-.01-1.55-.67-3.58-.9-3.58-.9h0c-.58-.09-1.04-.14-1.25-.17-.14-.12-.3-.31-.45-.58h0c-.5-.88-.98-2.51-1.08-4.74h0s.67-1.54,1.55-1.06c1.38.75,4.05-2.29,3.2-6.3-.09-.43-.21-.83-.33-1.19.29.12.61.22.92.22.8,0,2.01-2.05,2.18-2.73.17-.69-.02-2.95-1.11-3.62-1.07-.65-2.77.1-2.84.13.55-.77,2.42-.61,2.76-.58-4.37-.91-5.27,1.9-5.35,2.15-2.78-2.51-7.02,1.83-8.06,2.99-.07.06-.14.13-.21.2-.24.14-.51.36-.79.71-.55.66-.72,1.51-.72,2.32,0,1.44.55,2.77.55,2.77.25,2.43.95,5.43,2.08,5.52,0,0,.4,0,1-.04,0,.02,0,.05,0,.08.02.41.03.86.04,1.33v.28c0,1.22-.07,2.38-.35,2.53-.09,0-.17.01-.24.02-.11,0-.32.03-.32.03-.97.13-1.67.22-2.16.31-.97.17-1.22.28-1.46.47-.06.06-.11.12-.17.18-.71.54-2.02,1.77-3.16,4.15.17.15.34.29.52.42.03.02.06.05.09.07.13.1.26.2.4.29.09.08.19.15.29.21.1.07.2.14.29.2.14.1.28.2.43.29.1.07.2.13.3.19.12.07.25.15.38.22.14.08.28.16.42.23.02,0,.02.01.04.02,0,0,.01,0,.02.01h0s.04.02.06.03c.11.06.22.12.34.17,0,0,.01,0,.02,0,.03.02.07.04.1.05.06.03.13.07.19.09.06.03.12.06.19.09.14.07.29.13.43.19.15.06.29.12.44.18.07.03.14.06.2.08.07.02.13.05.2.08.14.05.28.1.41.15.14.05.28.09.43.14.12.04.24.07.36.11.01,0,.02,0,.04,0,.08.02.16.05.23.07.43.12.86.22,1.3.3.19.04.38.07.58.1.05,0,.1.02.15.02,0,0,.02,0,.03,0,0,0,.02,0,.02,0,.13.02.24.03.37.05.03,0,.05,0,.08,0,.02,0,.04,0,.06.01.12.02.23.03.35.04.02,0,.04,0,.06,0,.03,0,.07,0,.11.01.21.02.42.03.63.04h.03c.07,0,.13,0,.2,0,.04,0,.08,0,.12,0,.21,0,.41.01.62.01,4,0,7.69-1.31,10.66-3.54-.5-1.74-1.02-3.21-1.54-4.2"/><path class="cls-5" d="m859.73,916.83l-64.29,33.28h-42.8c-10.32-6.92-63.91-43.47-86.09-70.73-4.7-5.78-21.89-55.55-35.1-95.96v-.02c1.75,5.37,38.62,83.88,49.12,92.81,10.5,8.92,65.61,60.89,80.83,60.36,14.74-.5,93.24-18.57,98.1-19.69.07-.01.14-.03.22-.05"/><path class="cls-9" d="m989.08,950.11h-231.76c11.62-4.56,56.1-21.55,102.2-33.23.07-.01.14-.03.22-.05,39.59-10.02,80.35-16.09,102.48-6.98l.16.24,26.71,40.02Z"/><path class="cls-5" d="m615.7,643.99s.01,0,.02,0c3.91-1.43,9.39-2.38,12.06,2.08,4.15,6.93-11.27,68.1-13.2,75.79l1.13-77.86Z"/><path class="cls-10" d="m616.9,611.1l-1.33,37s7.78,1.27,12.2-2.04c4.42-3.3,2.08-35.39-10.88-34.96"/><path class="cls-9" d="m461.2,825.34c-22.27,4.57-70.27-12.93-70.27-12.93l7.74-74.78-54.24,62.12c-27.6-10.27-70.78-37.08-96.43-53.76,65.73-7.16,114.81-72.03,114.81-72.03,45.57,24.68,97,39.1,97,39.1-.02,44.44,1.39,112.28,1.39,112.28"/><path class="cls-15" d="m308.37,757.42c.05-4.99,4.12-8.99,9.11-8.94,4.99.05,8.99,4.13,8.94,9.11-.05,4.99-4.13,8.99-9.11,8.94-4.99-.05-8.99-4.12-8.94-9.11"/></g></svg>